<?xml version="1.0" encoding="UTF-8" standalone="no"?>
<svg
   width="22"
   height="22"
   fill="none"
   viewBox="0 0 22 22"
   version="1.1"
   id="svg2"
   xmlns="http://www.w3.org/2000/svg"
   xmlns:svg="http://www.w3.org/2000/svg">
  <defs
     id="defs2">
    <clipPath
       id="a-3">
      <path
         fill="#ffffff"
         d="M 0,0 H 40 V 41 H 0 Z"
         id="path3" />
    </clipPath>
  </defs>
  <g
     clip-path="url(#a-3)"
     id="g1"
     transform="matrix(0.5,0,0,0.5,1,0.74201889)">
    <path
       fill="#c7231a"
       fill-rule="evenodd"
       d="m 13.715,0.516 c -2.257,0 -4.42,0.896 -6.016,2.492 L 0,10.707 v 3.524 c 0,2.49 1.07,4.73 2.774,6.285 A 8.485,8.485 0 0 0 0,26.802 v 3.524 l 7.699,7.698 A 8.507,8.507 0 0 0 20,37.742 8.508,8.508 0 0 0 32.301,38.024 L 40,30.326 v -3.524 c 0,-2.49 -1.07,-4.73 -2.774,-6.286 A 8.485,8.485 0 0 0 40,14.231 v -3.524 l -7.699,-7.7 A 8.508,8.508 0 0 0 20,3.29 8.485,8.485 0 0 0 13.715,0.516 Z m 12.044,20 a 8.528,8.528 0 0 1 -0.282,-0.27 L 20,14.77 14.523,20.247 a 8.528,8.528 0 0 1 -0.282,0.27 c 0.096,0.087 0.19,0.177 0.282,0.269 L 20,26.262 25.477,20.786 c 0.092,-0.093 0.186,-0.182 0.282,-0.27 z m -3.537,9.81 v 1.682 a 4.063,4.063 0 0 0 6.936,2.874 l 6.398,-6.397 v -1.683 a 4.063,4.063 0 0 0 -6.937,-2.874 z m -4.444,0 -6.397,-6.398 a 4.063,4.063 0 0 0 -6.937,2.873 v 1.684 l 6.397,6.397 a 4.063,4.063 0 0 0 6.937,-2.873 z m 0,-21.302 v 1.683 l -6.397,6.397 A 4.063,4.063 0 0 1 4.444,14.231 v -1.683 l 6.397,-6.397 a 4.063,4.063 0 0 1 6.937,2.873 z m 10.841,8.08 -6.397,-6.397 V 9.024 a 4.063,4.063 0 0 1 6.936,-2.873 l 6.398,6.397 v 1.683 a 4.063,4.063 0 0 1 -6.937,2.873 z"
       clip-rule="evenodd"
       id="path1" />
  </g>
</svg>
